<?xml version="1.0" standalone="no"?>
<!DOCTYPE svg PUBLIC "-//W3C//DTD SVG 1.1//EN" "http://www.w3.org/Graphics/SVG/1.1/DTD/svg11.dtd" >
<!--
2013-9-30: Created.
-->
<svg>
<metadata>
Created by iconfont
</metadata>
<defs>

<font id="iconfont" horiz-adv-x="1024" >
  <font-face
    font-family="iconfont"
    font-weight="500"
    font-stretch="normal"
    units-per-em="1024"
    ascent="896"
    descent="-128"
  />
    <missing-glyph />
    
    <glyph glyph-name="-delete" unicode="&#58908;" d="M736.032 61.63199999999995C736.032 46.27200000000005 721.824 33.823999999999955 704.032 33.823999999999955 686.368 33.823999999999955 672.032 46.432000000000016 672.032 61.63199999999995L672.032 537.344C672.032 552.736 686.24 565.184 704.032 565.184 721.696 565.184 736.032 552.576 736.032 537.344L736.032 61.63199999999995ZM544.032 61.63199999999995C544.032 46.27200000000005 529.824 33.823999999999955 512.032 33.823999999999955 494.368 33.823999999999955 480.032 46.432000000000016 480.032 61.63199999999995L480.032 537.344C480.032 552.736 494.24 565.184 512.032 565.184 529.696 565.184 544.032 552.576 544.032 537.344L544.032 61.63199999999995ZM352.032 61.63199999999995C352.032 46.27200000000005 337.824 33.823999999999955 320.032 33.823999999999955 302.368 33.823999999999955 288.032 46.432000000000016 288.032 61.63199999999995L288.032 537.344C288.032 552.736 302.24 565.184 320.032 565.184 337.696 565.184 352.032 552.576 352.032 537.344L352.032 61.63199999999995ZM880.256 737.8240000000001L672 737.8240000000001 655.52 803.6800000000001C646.944 838.048 611.36 865.824 576.064 865.824L447.936 865.824C412.352 865.824 377.024 837.984 368.448 803.6800000000001L352 737.8240000000001 143.712 737.8240000000001C117.408 737.8240000000001 96 716.3199999999999 96 689.8240000000001 96 663.104 117.344 641.8240000000001 143.712 641.8240000000001L192.032 641.8240000000001 192.032-30.08000000000004C192.032-65.72799999999995 220.512-94.17600000000004 255.712-94.17600000000004L768.288-94.17600000000004C803.232-94.17600000000004 832.032-65.47199999999998 832.032-30.08000000000004L832.032 641.8240000000001 880.256 641.8240000000001C906.592 641.8240000000001 928 663.296 928 689.8240000000001 928 716.512 906.624 737.8240000000001 880.256 737.8240000000001"  horiz-adv-x="1024" />

    
    <glyph glyph-name="-check" unicode="&#59019;" d="M427.2128 234.85440000000006l364.2368 380.5184a38.4 38.4 0 0 0 55.5008-53.1456l-392.0896-409.6a38.4 38.4 0 0 0-55.6032 0.1536l-222.3104 233.984a38.4 38.4 0 1 0 55.7056 52.9408l194.56-204.8512z"  horiz-adv-x="1024" />

    
    <glyph glyph-name="-minus" unicode="&#59389;" d="M872 422H152c-4.4 0-8-3.6-8-8v-60c0-4.4 3.6-8 8-8h720c4.4 0 8 3.6 8 8v60c0 4.4-3.6 8-8 8z"  horiz-adv-x="1024" />

    
    <glyph glyph-name="-edit" unicode="&#58988;" d="M469.3 67.70000000000005h97.8v-97.8h-97.8v97.8z m179.4 0h97.8v-97.8h-97.8v97.8z m179.3 0h97.8v-97.8H828v97.8zM180.8 238.20000000000005c-10.2-10.2-16.6-22.6-19.6-35.6L97.8 8.299999999999955l0.3-0.3c-3.1-10.1-0.7-21.5 7.3-29.6 7.8-7.8 18.9-10.2 28.9-7.5l0.1-0.1L329.8 34l-0.1 0.1c13 3.1 25.5 9.5 35.6 19.6L789.6 478 605.1 662.6 180.8 238.20000000000005zM905.5 594c29.1 29.1 25.1 99.8-14.1 141.3l-14.7 15.6-15.1 14.2C822.3 804.5 750.1 807.6 721 778.5l-45.3-45.3 184.5-184.5 45.3 45.3z m0 0"  horiz-adv-x="1024" />

    
    <glyph glyph-name="-warn-fill" unicode="&#60337;" d="M512 192.00933799999996c26.508747 0 47.998177 21.48943 47.998177 47.998177s-21.48943 47.998177-47.998177 47.998177-47.998177-21.48943-47.998177-47.998177 21.48943-47.998177 47.998177-47.998177z m-15.649422 415.980109c-0.605797 0-1.211595-0.017396-1.816368-0.051165-17.643845-1.003863-31.133068-16.120143-30.130228-33.763988l12.736069-223.989447c0.963954-16.939811 14.980179-30.182416 31.946596-30.182417h5.802146c16.965393 0 30.981618 13.240559 31.946597 30.178323l12.760628 223.989448a31.742958 31.742958 0 0 1 0.052189 1.820461c0 17.672498-14.326287 31.998785-31.998785 31.998785h-31.298844z m15.649422-671.967318c-247.411903 0-447.978894 200.566992-447.978894 447.978894S264.588097 831.978894 512 831.978894 959.977871 631.4119029999999 959.977871 384 759.411903-63.97787100000005 512-63.97787100000005z"  horiz-adv-x="1024" />

    
    <glyph glyph-name="-close" unicode="&#60338;" d="M512 831.978894c-247.405763 0-447.978894-200.572108-447.978894-447.978894s200.572108-447.978894 447.978894-447.978894S959.977871 136.59423700000002 959.977871 384 759.405763 831.978894 512 831.978894z m135.75794-628.989481L512 338.747353 376.24206 202.989413c-12.496615-12.496615-32.757055-12.495592-45.252647 0s-12.496615 32.756031 0 45.252647l135.75794 135.75794L330.989413 519.75794c-12.496615 12.496615-12.495592 32.757055 0 45.252647 12.495592 12.495592 32.756031 12.496615 45.252647 0l135.75794-135.75794 135.75794 135.75794c12.495592 12.495592 32.756031 12.496615 45.252647 0s12.495592-32.757055 0-45.252647L557.252647 384l135.75794-135.75794c12.495592-12.495592 12.495592-32.757055 0-45.252647-12.496615-12.495592-32.757055-12.495592-45.252647 0z"  horiz-adv-x="1024" />

    
    <glyph glyph-name="-plus" unicode="&#59646;" d="M474 744m8 0l60 0q8 0 8-8l0-704q0-8-8-8l-60 0q-8 0-8 8l0 704q0 8 8 8ZM168 422m8 0l672 0q8 0 8-8l0-60q0-8-8-8l-672 0q-8 0-8 8l0 60q0 8 8 8Z"  horiz-adv-x="1024" />

    
    <glyph glyph-name="-privac-open" unicode="&#59038;" d="M344 488v36.64c0 90.096 71.504 163.36 160 163.36s160-73.264 160-163.36v-36.64h109.28c14.768 0 26.72-11.952 26.72-26.72v-346.56a26.72 26.72 0 0 0-26.72-26.72H250.72A26.72 26.72 0 0 0 224 114.72000000000003V461.28c0 14.768 11.952 26.72 26.72 26.72h93.28z m48 0h224v36.64c0 63.84-50.272 115.36-112 115.36s-112-51.52-112-115.36v-36.64z m-120-352h480v304H272v-304z m201.76 119.872l126.976 130.528a21.6 21.6 0 0 0 30.56 0.288l0.896-0.944 4.944-5.472a21.6 21.6 0 0 0-0.608-29.6l-147.568-151.52a21.6 21.6 0 0 0-30.56-0.288l-0.432 0.432-75.984 80.752a21.6 21.6 0 0 0-0.304 29.616l4.976 5.408a21.6 21.6 0 0 0 30.528 1.216c0.48-0.432 0.48-0.432 0.912-0.88l55.664-59.536z"  horiz-adv-x="1024" />

    
    <glyph glyph-name="-wifi" unicode="&#59044;" d="M475.344 174.88a75.296 75.296 0 0 0 93.44 1.04c1.408-1.088 2.448-5.12 1.856-5.712a10133.92 10133.92 0 0 0-43.296-44.272l-0.096-0.08a6.448 6.448 0 0 0-9.12 0.096 18020.992 18020.992 0 0 1-43.92 44.848c-0.448 0.448 0.192 3.328 1.12 4.08z m-104.976 121.12c40.112 30.128 89.984 48 144.032 48 56.48 0 108.384-19.504 149.376-52.144a13.488 13.488 0 0 0 1.28-19.936l-14.112-14.512a14.512 14.512 0 0 0-19.28-1.36A191.168 191.168 0 0 1 514.4 296a191.136 191.136 0 0 1-113.024-36.8 16 16 0 0 0-21.12 1.904l-11.792 12.48a15.072 15.072 0 0 0 1.904 22.4z m-99.44 104.96A382.416 382.416 0 0 0 514.4 488c96.32 0 184.368-35.456 251.776-94.048a11.904 11.904 0 0 0 0.72-17.28l-16.512-16.992a12.48 12.48 0 0 0-17.088-0.752 334.688 334.688 0 0 1-218.88 81.072 334.608 334.608 0 0 1-211.792-75.136 16 16 0 0 0-21.728 1.424l-11.392 12.064a15.488 15.488 0 0 0 1.44 22.608z m-106.096 109.36A533.92 533.92 0 0 0 514.4 640a533.984 533.984 0 0 0 355.52-134.848 15.008 15.008 0 0 0 0.8-21.712l-11.888-12.224a16 16 0 0 0-22.08-0.816A486.128 486.128 0 0 1 514.4 592a486.08 486.08 0 0 1-316.88-116.864 14.88 14.88 0 0 0-20.496 1.104l-13.248 14.016a13.888 13.888 0 0 0 1.04 20.064z"  horiz-adv-x="1024" />

    
    <glyph glyph-name="-hide" unicode="&#58882;" d="M1715.926132 858.617557C1462.717456 543.781373 1210.848509 391.052331 956.300105 391.052331S439.164926 545.1211020000001 167.200052 861.297014a92.441263 92.441263 0 0 1-87.082349 33.493211 88.422077 88.422077 0 0 1-75.024793-64.306965 91.101534 91.101534 0 0 1 17.41647-89.761806c304.118357-353.688309 613.595627-535.891377 928.431811-535.891377s618.954541 182.203068 902.976971 535.891377a92.441263 92.441263 0 0 1-137.99203 117.896103z m0 0M294.474254 483.493593L117.630099 279.85487a66.986422 66.986422 0 1 1 100.479634-87.082349L393.614159 396.411244a65.914639 65.914639 0 1 1-99.139905 87.082349z m355.028037-239.811391l-69.665879-286.701887a68.862042 68.862042 0 1 1 133.972845-32.153483l71.005607 281.342973a66.986422 66.986422 0 0 1-48.230224 80.383707 65.646694 65.646694 0 0 1-80.383706-48.230224z m511.776266-10.717828l99.139904-275.984059a64.306965 64.306965 0 0 1 83.063164-40.191853 66.986422 66.986422 0 0 1 41.531582 83.063163l-99.139905 281.342973a65.914639 65.914639 0 0 1-124.594745-42.87131z m359.047222 239.811392l203.638724-203.638724a66.316558 66.316558 0 1 1 93.780991 93.780991L1612.767042 566.5567570000001a66.316558 66.316558 0 1 1-93.780991-93.780991z m0 0"  horiz-adv-x="1886" />

    
    <glyph glyph-name="-sign-out" unicode="&#58883;" d="M462.276587-126.50401799999997H62.849268a64.327246 64.327246 0 0 0-62.831264 63.579255V831.6727539999999a62.831264 62.831264 0 0 0 62.831264 64.327246h399.427319A64.327246 64.327246 0 0 0 523.611869 831.6727539999999a62.831264 62.831264 0 0 0-62.831264-62.831264h-336.596056v-770.430971h338.092038a63.579255 63.579255 0 0 0 0-126.410519z m0 0M1030.001934 424.765522L702.381774 758.369613a57.595325 57.595325 0 0 1-98.734843-40.391527v-78.539079a57.595325 57.595325 0 0 0-58.343317-58.343317H278.270744a57.595325 57.595325 0 0 1-58.343317-59.091307v-276.756757a57.595325 57.595325 0 0 1 58.343317-57.595325h267.03287a57.595325 57.595325 0 0 0 58.343317-58.343316v-78.53908a58.343316 58.343316 0 0 1 98.734843-40.391527l327.62016 332.108108a59.839299 59.839299 0 0 1 0 82.279036z m0 0"  horiz-adv-x="1049" />

    
    <glyph glyph-name="-warning" unicode="&#58885;" d="M629.673617 34.91684799999996a81.458424 81.458424 0 0 0-60.279233-24.437527 81.458424 81.458424 0 0 0-60.279234 24.437527 81.458424 81.458424 0 0 0-25.252112 60.279234 81.458424 81.458424 0 0 0 25.252112 60.279233A81.458424 81.458424 0 0 0 570.208968 181.542011a81.458424 81.458424 0 0 0 60.279234-26.066696 81.458424 81.458424 0 0 0 21.17919-60.279233 81.458424 81.458424 0 0 0-25.252112-60.279234z m-121.373051 570.208968a81.458424 81.458424 0 0 0 61.908402 24.437527 81.458424 81.458424 0 0 0 61.908402-26.066696 92.048019 92.048019 0 0 0 19.550022-64.352155c0-21.993774-33.397954-186.539791-44.802133-306.283674h-81.458424c-9.775011 119.743883-46.431302 284.2899-46.431302 306.283674a90.418851 90.418851 0 0 0 24.437527 64.352155z m607.679843-557.990204L668.773661 825.063561a105.081367 105.081367 0 0 1-198.758555 0L23.622943 45.50644299999999c-54.577144-95.306356-10.589595-173.506443 99.379277-173.506443h896.042664c109.154288 0 153.956421 81.458424 99.379277 173.506443z m0 0"  horiz-adv-x="1141" />

    
    <glyph glyph-name="-data-stream" unicode="&#58886;" d="M921.6 554.666667H580.266667a68.266667 68.266667 0 0 1 0-136.533334h341.333333a68.266667 68.266667 0 0 1 0 136.533334zM921.6 281.6H288.085333A136.533333 136.533333 0 0 1 170.666667 349.866667a136.533333 136.533333 0 0 1 0-273.066667 136.533333 136.533333 0 0 1 117.418666 68.266667H921.6a68.266667 68.266667 0 0 1 0 136.533333zM921.6 8.53333299999997H580.266667a68.266667 68.266667 0 0 1 0-136.533333h341.333333a68.266667 68.266667 0 0 1 0 136.533333zM170.666667 622.933333a136.533333 136.533333 0 0 1 117.418666 68.266667H921.6a68.266667 68.266667 0 0 1 0 136.533333H288.085333A136.533333 136.533333 0 0 1 170.666667 896a136.533333 136.533333 0 0 1 0-273.066667z"  horiz-adv-x="1024" />

    
    <glyph glyph-name="-system-configuration" unicode="&#58887;" d="M939.87833 383.999634A133.118954 133.118954 0 0 0 1023.991954 511.267206a555.149924 555.149924 0 0 1-141.896028 238.443841 157.98733 157.98733 0 0 0-159.450175-13.165611 146.284565 146.284565 0 0 0-73.142283 140.433182A521.504474 521.504474 0 0 1 511.995977 895.995611a482.739064 482.739064 0 0 1-141.164605-20.479839 146.284565 146.284565 0 0 0-73.142282-140.433182 134.5818 134.5818 0 0 0-157.255908 14.628457A561.001306 561.001306 0 0 1 0 511.267206a133.118954 133.118954 0 0 0 83.382202-127.267572A134.5818 134.5818 0 0 0 0 255.26921700000003a558.807038 558.807038 0 0 1 140.433182-236.980995 159.450176 159.450176 0 0 0 160.181599 13.165611 146.284565 146.284565 0 0 0 73.142282-141.164605 545.641427 545.641427 0 0 1 138.238914-18.285571 518.578783 518.578783 0 0 1 141.164605 19.016994 146.284565 146.284565 0 0 0 73.142283 141.164605 133.850377 133.850377 0 0 0 159.450176-13.165611A552.955655 552.955655 0 0 1 1023.991954 255.26921700000003a134.5818 134.5818 0 0 0-84.113624 128.730417zM511.995977 172.61843799999997a214.306888 214.306888 0 0 0-219.426847 211.381196 214.306888 214.306888 0 0 0 219.426847 210.649774 215.03831 215.03831 0 0 0 219.426848-210.649774 215.03831 215.03831 0 0 0-219.426848-211.381196z m0 82.650779a127.998994 127.998994 0 1 1-128.730417 128.730417A127.998994 127.998994 0 0 1 511.995977 255.26921700000003z m0 0"  horiz-adv-x="1024" />

    
    <glyph glyph-name="-agreement" unicode="&#58888;" d="M671.901538 211.49538500000006l-94.523076-163.84 94.523076-163.84h189.046154l95.31077 163.84-95.31077 163.84h-189.046154zM0 896v-1024h574.227692L472.615385 47.655385000000024l147.298461 254.424615h293.809231L1024 108.30769199999997V896z m787.692308-472.615385H236.307692V502.153846h551.384616z m0 157.538462H236.307692V659.692308h551.384616z"  horiz-adv-x="1024" />

    
    <glyph glyph-name="-display" unicode="&#58889;" d="M672.964393 515.619997a234.043635 234.043635 0 1 1 234.043635-234.043635 234.043635 234.043635 0 0 1-234.043635 234.043635z m0-351.065453a117.021818 117.021818 0 1 0 117.021818 117.021818 117.021818 117.021818 0 0 0-117.021818-117.021818zM1366.318662 553.652088a28.670345 28.670345 0 1 1-40.957636 40.957636l-146.277272-146.277272a643.619997 643.619997 0 0 1-239.309617 184.309362L1053.2853 853.81305a29.255454 29.255454 0 1 1-52.659818 25.7448l-115.26649-224.68189a640.109342 640.109342 0 0 1-424.789198 0L351.154395 879.55785a29.255454 29.255454 0 0 1-52.659818-25.7448L406.154649 632.6418140000001A651.226415 651.226415 0 0 1 181.472759 462.960179L49.823214 594.609724a28.085236 28.085236 0 0 1-40.957636 0 28.085236 28.085236 0 0 1 0-40.957636L145.781105 416.151452a664.098815 664.098815 0 0 1-62.606673-111.170727l-9.946854-23.404363 9.946854-23.404364a643.619997 643.619997 0 0 1 1179.579922 0l9.946854 23.404364-9.946854 23.404363a687.503178 687.503178 0 0 1-52.074709 95.957891 24.574582 24.574582 0 0 1 9.361745 6.4362zM672.964393-10.978181999999947a526.598179 526.598179 0 0 0-471.597925 292.554544 526.598179 526.598179 0 0 0 943.19585 0 526.598179 526.598179 0 0 0-471.597925-292.554544z"  horiz-adv-x="1375" />

    
    <glyph glyph-name="-help" unicode="&#58890;" d="M511.964946 895.994149a494.380739 494.380739 0 0 0 198.191095-41.68595 533.141359 533.141359 0 0 0 163.087137-109.699868 521.440039 521.440039 0 0 0 109.699868-162.355804A506.81339 506.81339 0 0 0 1023.897664 384.061432a499.500066 499.500066 0 0 0-39.491953-198.191095 521.440039 521.440039 0 0 0-111.162533-167.475132 511.932717 511.932717 0 0 0-163.087137-109.699868 494.380739 494.380739 0 0 0-198.191095-36.566622 487.798746 487.798746 0 0 0-198.191095 40.223284A511.932717 511.932717 0 0 0 40.255514 184.40767200000005 487.798746 487.798746 0 0 0 0.032229 384.061432a511.932717 511.932717 0 0 0 149.923153 360.546899A521.440039 521.440039 0 0 0 312.311187 854.3081990000001 487.798746 487.798746 0 0 0 511.964946 895.994149z m0-862.972295a68.745251 68.745251 0 0 1 73.133246 68.745251 73.133245 73.133245 0 1 1-138.953166 0 68.745251 68.745251 0 0 1 73.133245-68.745251z m58.506597 277.906333a51.193272 51.193272 0 0 0 22.671306 38.76062l53.387269 45.342612a406.620844 406.620844 0 0 1 54.849934 62.163258 121.401187 121.401187 0 0 1 29.98463 73.133246 237.683047 237.683047 0 0 1-9.507322 83.371899 157.236477 157.236477 0 0 1-39.491952 62.894591 180.639116 180.639116 0 0 1-68.013918 44.61128 266.936346 266.936346 0 0 1-97.998549 16.820646 239.145712 239.145712 0 0 1-115.550528-24.865303 230.369723 230.369723 0 0 1-73.133245-59.237929 205.504419 205.504419 0 0 1-39.491952-73.133245 181.370448 181.370448 0 0 1-10.238655-62.163259 54.849934 54.849934 0 0 1 18.283312-43.879947 64.357256 64.357256 0 0 1 38.76062-13.895316 57.775264 57.775264 0 0 1 37.297955 10.969986 40.223285 40.223285 0 0 1 17.551979 35.103958 100.192546 100.192546 0 0 0 8.044657 33.641293 171.863127 171.863127 0 0 0 23.402638 38.029288 138.953166 138.953166 0 0 0 36.566623 31.447295 94.341886 94.341886 0 0 0 47.536609 12.432652A125.789182 125.789182 0 0 0 585.098192 599.804506a73.133245 73.133245 0 0 0 28.521965-65.088589 59.969261 59.969261 0 0 0-11.701319-35.83529 163.81847 163.81847 0 0 0-28.521966-32.178628l-38.029287-30.715963c-13.163984-10.238654-25.596636-21.208641-38.029288-32.178628a169.669129 169.669129 0 0 1-29.253298-35.83529 87.759894 87.759894 0 0 1-13.163984-42.417282v-43.148615a46.805277 46.805277 0 0 1 16.089314-32.909961 62.894591 62.894591 0 0 1 40.954617-16.089313 59.969261 59.969261 0 0 1 41.68595 16.820646 48.267942 48.267942 0 0 1 14.626649 36.566623z m0 0"  horiz-adv-x="1025" />

    
    <glyph glyph-name="-gateway" unicode="&#58891;" d="M991.085714 408.137143l-89.234285 89.234286A112.64 112.64 0 0 1 822.125714 530.285714h-54.125714V859.428571a36.571429 36.571429 0 0 1-73.142857 0V530.285714h-365.714286V859.428571a36.571429 36.571429 0 0 1-73.142857 0V530.285714h-54.125714a112.64 112.64 0 0 1-79.725715-32.914285L32.914286 408.137143A112.64 112.64 0 0 1 0 328.411429v-344.502858A112.64 112.64 0 0 1 111.908571-128h800.182858A112.64 112.64 0 0 1 1024-16.09142899999995V328.411429a112.64 112.64 0 0 1-32.914286 79.725714zM548.571429 91.42857100000003h-73.142858v73.142858h73.142858z m146.285714 0h-73.142857v73.142858h73.142857z m219.428571 0h-146.285714v73.142858h146.285714z m-804.571428 219.428572l54.857143 54.857143A62.902857 62.902857 0 0 0 209.188571 384h605.622858a62.902857 62.902857 0 0 0 44.617142-18.285714l54.857143-54.857143z"  horiz-adv-x="1024" />

    
    <glyph glyph-name="-network" unicode="&#58892;" d="M0 896v-1024h1024V896z m955.733333-955.733333h-68.266666v273.066666h-68.266667v-273.066666h-68.266667v273.066666h-68.266666v-273.066666H614.4v273.066666H546.133333v-273.066666H68.266667V827.733333h887.466666zM375.466667 418.133333a103.082667 103.082667 0 0 1 96.256 68.266667H682.666667v-68.266667h204.8V622.933333h-204.8v-68.266666H471.722667A102.4 102.4 0 1 1 375.466667 418.133333z"  horiz-adv-x="1024" />

    
    <glyph glyph-name="-network-configuration" unicode="&#58893;" d="M219.428571 264.045714a1019.611429 1019.611429 0 0 1 328.411429 73.142857 1036.434286 1036.434286 0 0 1 285.988571 159.451429A349.622857 349.622857 0 0 1 146.285714 404.48a356.205714 356.205714 0 0 1 29.257143-139.702857 405.942857 405.942857 0 0 1 43.885714-0.731429zM609.28 175.54285700000003a1316.571429 1316.571429 0 0 0-283.794286-76.8 350.354286 350.354286 0 0 1 495.908572 178.468572 1426.285714 1426.285714 0 0 0-212.114286-101.668572zM205.531429 147.01714300000003c-108.982857 0-177.005714 29.988571-198.948572 85.577143-14.628571 38.765714-11.702857 103.131429 86.308572 193.097143a29.257143 29.257143 0 0 0 39.497142-41.691429C73.142857 331.33714299999997 49.737143 283.062857 61.44 253.80571399999997s73.142857-50.468571 157.988571-48.274285a1120.548571 1120.548571 0 0 1 348.16 78.262857A1097.142857 1097.142857 0 0 1 877.714286 457.142857c65.828571 56.32 97.28 109.714286 84.845714 141.897143S877.714286 655.36 773.851429 647.314286a29.257143 29.257143 0 1 0-4.388572 58.514285c135.314286 9.508571 223.085714-19.748571 247.954286-83.382857s-12.434286-130.925714-101.668572-207.725714A1160.777143 1160.777143 0 0 0 585.142857 229.66857100000004a1133.714286 1133.714286 0 0 0-365.714286-81.92z"  horiz-adv-x="1024" />

    


  </font>
</defs>
</svg>
